#!OML:ASF H:\SpeedWalk\Project 1\Capture day 2\Session 1\male.ASF
:FULLY-SPECIFIED
:DEGREES
139
root -8.169608 18.166323 -12.357055 1.757150 -6.183644 -3.856254
lowerback 13.930690 3.717781 3.617321 
upperback 1.019990 5.613582 1.851770 
thorax -6.554314 2.658388 -1.148352 
lowerneck -12.530222 1.253143 2.002499 
upperneck 12.022345 2.020890 -4.799451 
head 5.761810 0.713981 -1.668801 
rclavicle 0.000000 0.000000 
rhumerus -22.080964 -8.856220 -82.994015 
rradius 33.862376 
rwrist -7.060706 
rhand -11.646319 -12.630247 
rfingers 0.000000 
rthumb 14.397816 -42.110828 
lclavicle 0.000000 0.000000 
lhumerus -38.749103 4.160314 86.533983 
lradius 36.784241 
lwrist -16.289032 
lhand -6.468954 14.917638 
lfingers 0.000000 
lthumb 19.381532 43.971679 
rfemur 11.262134 3.427297 27.045964 
rtibia 19.652980 
rfoot -3.644774 -2.528112 
rtoes -19.301501 
lfemur -69.106974 3.782371 -17.973415 
ltibia 81.799851 
lfoot -14.158197 -0.850243 
ltoes 8.900503 
140
root -8.160312 18.225408 -12.221708 2.002208 -6.070207 -3.717009
lowerback 13.875719 3.725575 3.409291 
upperback 0.935011 5.587780 1.774089 
thorax -6.627203 2.648468 -1.109782 
lowerneck -12.612486 1.211951 1.979867 
upperneck 11.828125 1.942423 -4.674180 
head 5.710230 0.685196 -1.631356 
rclavicle 0.000000 0.000000 
rhumerus -22.310994 -9.157445 -82.951704 
rradius 33.737196 
rwrist -7.083902 
rhand -11.842305 -12.595886 
rfingers 0.000000 
rthumb 14.208950 -42.089859 
lclavicle 0.000000 0.000000 
lhumerus -38.764319 4.309049 86.398711 
lradius 36.596771 
lwrist -16.295136 
lhand -6.567081 14.951577 
lfingers 0.000000 
lthumb 19.287191 44.015091 
rfemur 11.463228 3.449894 26.772659 
rtibia 19.122024 
rfoot -2.022815 -2.451299 
rtoes -19.767306 
lfemur -68.674471 3.596772 -18.171423 
ltibia 81.739009 
lfoot -14.640486 -0.718724 
ltoes 8.726470 
141
root -8.151264 18.288604 -12.084411 2.247950 -5.941753 -3.597759
lowerback 13.813510 3.731771 3.212568 
upperback 0.846017 5.562140 1.705569 
thorax -6.700100 2.638635 -1.067470 
lowerneck -12.688766 1.163246 1.955288 
upperneck 11.642816 1.854294 -4.543541 
head 5.660192 0.651897 -1.592821 
rclavicle 0.000000 0.000000 
rhumerus -22.547897 -9.489842 -82.893281 
rradius 33.571141 
rwrist -7.072695 
rhand -12.024735 -12.558363 
rfingers 0.000000 
rthumb 14.033186 -42.064597 
lclavicle 0.000000 0.000000 
lhumerus -38.773041 4.447545 86.273306 
lradius 36.406360 
lwrist -16.265019 
lhand -6.665225 14.988030 
lfingers 0.000000 
lthumb 19.192808 44.061007 
rfemur 11.650512 3.448446 26.508107 
rtibia 18.553999 
rfoot -0.195759 -2.412633 
rtoes -20.078349 
lfemur -68.203462 3.402238 -18.344636 
ltibia 81.622162 
lfoot -15.124414 -0.578280 
ltoes 8.412045 
142
root -8.142442 18.356278 -11.945284 2.497521 -5.801232 -3.504476
lowerback 13.739416 3.737469 3.034462 
upperback 0.753783 5.539146 1.647749 
thorax -6.768981 2.630019 -1.023926 
lowerneck -12.760907 1.106431 1.923203 
upperneck 11.461496 1.755972 -4.403300 
head 5.610409 0.613913 -1.550975 
rclavicle 0.000000 0.000000 
rhumerus -22.792932 -9.852448 -82.817172 
rradius 33.373266 
rwrist -7.006682 
rhand -12.185002 -12.522876 
rfingers 0.000000 
rthumb 13.878717 -42.039707 
lclavicle 0.000000 0.000000 
lhumerus -38.771379 4.571269 86.159299 
lradius 36.219528 
lwrist -16.210207 
lhand -6.727232 15.033333 
lfingers 0.000000 
lthumb 19.133163 44.112201 
rfemur 11.815892 3.426724 26.256735 
rtibia 17.943936 
rfoot 1.872111 -2.444020 
rtoes -20.161981 
lfemur -67.696919 3.208944 -18.493209 
ltibia 81.452016 
lfoot -15.608934 -0.444556 
ltoes 8.024421 
143
root -8.133818 18.427099 -11.805345 2.750051 -5.656006 -3.440445
lowerback 13.654914 3.744608 2.880718 
upperback 0.658448 5.522400 1.600992 
thorax -6.833908 2.624131 -0.982747 
lowerneck -12.827824 1.041446 1.886908 
upperneck 11.285634 1.647767 -4.260448 
head 5.561233 0.571034 -1.508528 
rclavicle 0.000000 0.000000 
rhumerus -23.044634 -10.237010 -82.725300 
rradius 33.153084 
rwrist -6.887783 
rhand -12.321627 -12.502727 
rfingers 0.000000 
rthumb 13.747051 -42.028596 
lclavicle 0.000000 0.000000 
lhumerus -38.760066 4.677002 86.058563 
lradius 36.035772 
lwrist -16.144064 
lhand -6.765086 15.100859 
lfingers 0.000000 
lthumb 19.096760 44.183290 
rfemur 11.958533 3.396214 26.024308 
rtibia 17.298838 
rfoot 4.151000 -2.571532 
rtoes -20.004570 
lfemur -67.162849 3.026944 -18.614973 
ltibia 81.241666 
lfoot -16.095988 -0.319721 
ltoes 7.655441 
144
root -8.125247 18.500687 -11.664962 2.999492 -5.511532 -3.407049
lowerback 13.563778 3.753835 2.756130 
upperback 0.562410 5.513515 1.564705 
thorax -6.893935 2.621577 -0.947698 
lowerneck -12.888470 0.969549 1.845559 
upperneck 11.115099 1.531403 -4.113900 
head 5.512558 0.524152 -1.464843 
rclavicle 0.000000 0.000000 
rhumerus -23.300629 -10.641369 -82.619028 
rradius 32.912053 
rwrist -6.710852 
rhand -12.429324 -12.492496 
rfingers 0.000000 
rthumb 13.643245 -42.025404 
lclavicle 0.000000 0.000000 
lhumerus -38.740498 4.762364 85.970800 
lradius 35.857867 
lwrist -16.074322 
lhand -6.784534 15.164750 
lfingers 0.000000 
lthumb 19.078033 44.249046 
rfemur 12.081196 3.365435 25.811991 
rtibia 16.624789 
rfoot 6.635117 -2.813798 
rtoes -19.524302 
lfemur -66.595602 2.862701 -18.708718 
ltibia 80.995562 
lfoot -16.585797 -0.199043 
ltoes 7.301437 
145
root -8.116703 18.576685 -11.524455 3.242736 -5.371441 -3.404874
lowerback 13.468821 3.765447 2.662943 
upperback 0.466821 5.513243 1.538290 
thorax -6.949133 2.622592 -0.920943 
lowerneck -12.942903 0.892000 1.799032 
upperneck 10.949982 1.408518 -3.963010 
head 5.464517 0.474105 -1.419546 
rclavicle 0.000000 0.000000 
rhumerus -23.559111 -11.060758 -82.501374 
rradius 32.652370 
rwrist -6.478480 
rhand -12.511553 -12.482776 
rfingers 0.000000 
rthumb 13.563965 -42.020944 
lclavicle 0.000000 0.000000 
lhumerus -38.714639 4.825448 85.895917 
lradius 35.693319 
lwrist -15.999971 
lhand -6.781557 15.222373 
lfingers 0.000000 
lthumb 19.080874 44.306440 
rfemur 12.183168 3.342932 25.621924 
rtibia 15.934168 
rfoot 9.294793 -3.188707 
rtoes -18.716173 
lfemur -65.993879 2.720343 -18.773175 
ltibia 80.717040 
lfoot -17.078228 -0.080916 
ltoes 6.961408 
146
root -8.108288 18.654701 -11.384184 3.479955 -5.237073 -3.434102
lowerback 13.371919 3.779302 2.601060 
upperback 0.371277 5.521426 1.521451 
thorax -7.000950 2.627014 -0.902857 
lowerneck -12.992821 0.809783 1.748676 
upperneck 10.791431 1.280360 -3.808927 
head 5.417831 0.421451 -1.373105 
rclavicle 0.000000 0.000000 
rhumerus -23.819147 -11.487287 -82.376748 
rradius 32.378101 
rwrist -6.201173 
rhand -12.578871 -12.466186 
rfingers 0.000000 
rthumb 13.499069 -42.008635 
lclavicle 0.000000 0.000000 
lhumerus -38.684752 4.864438 85.834395 
lradius 35.552698 
lwrist -15.913162 
lhand -6.745171 15.292989 
lfingers 0.000000 
lthumb 19.115921 44.373596 
rfemur 12.258689 3.336020 25.457605 
rtibia 15.247496 
rfoot 12.074907 -3.711244 
rtoes -17.658187 
lfemur -65.361462 2.601448 -18.806800 
ltibia 80.408077 
lfoot -17.573418 0.031878 
ltoes 6.652422 
147
root -8.100065 18.734249 -11.245097 3.704458 -5.108211 -3.495508
lowerback 13.282355 3.793184 2.572714 
upperback 0.276567 5.535743 1.514276 
thorax -7.053679 2.633483 -0.894814 
lowerneck -13.045689 0.724948 1.698591 
upperneck 10.646865 1.149758 -3.656094 
head 5.376284 0.367267 -1.327371 
rclavicle 0.000000 0.000000 
rhumerus -24.078889 -11.906618 -82.251638 
rradius 32.099723 
rwrist -5.890755 
rhand -12.628538 -12.458305 
rfingers 0.000000 
rthumb 13.451209 -42.003956 
lclavicle 0.000000 0.000000 
lhumerus -38.654623 4.873131 85.786863 
lradius 35.444910 
lwrist -15.816456 
lhand -6.679496 15.335185 
lfingers 0.000000 
lthumb 19.179050 44.409471 
rfemur 12.290623 3.348851 25.322973 
rtibia 14.622686 
rfoot 14.875510 -4.386081 
rtoes -16.426464 
lfemur -64.693882 2.506237 -18.806800 
ltibia 80.065257 
lfoot -18.075252 0.134526 
ltoes 6.430894 
148
root -8.088441 18.852427 -11.043530 4.015777 -4.922096 -3.620817
lowerback 13.160750 3.809563 2.567877 
upperback 0.140064 5.558194 1.515583 
thorax -7.131630 2.642608 -0.891772 
lowerneck -13.131569 0.601783 1.621497 
upperneck 10.455950 0.961726 -3.430689 
head 5.323889 0.289079 -1.259109 
rclavicle 0.000000 0.000000 
rhumerus -24.452469 -12.495235 -82.074910 
rradius 31.696975 
rwrist -5.395016 
rhand -12.674914 -12.449682 
rfingers 0.000000 
rthumb 13.406503 -41.998299 
lclavicle 0.000000 0.000000 
lhumerus -38.621412 4.834817 85.742515 
lradius 35.355307 
lwrist -15.661499 
lhand -6.585922 15.372758 
lfingers 0.000000 
lthumb 19.268999 44.438126 
rfemur 12.220495 3.379670 25.166785 
rtibia 13.959628 
rfoot 18.683597 -5.453012 
rtoes -14.810049 
lfemur -63.674718 2.390717 -18.768568 
ltibia 79.507556 
lfoot -18.792357 0.266984 
ltoes 6.242731 
149
root -8.077564 18.976870 -10.837402 4.322240 -4.714240 -3.775896
lowerback 13.048753 3.813464 2.583581 
upperback -0.000584 5.568553 1.527960 
thorax -7.218896 2.645077 -0.887080 
lowerneck -13.239116 0.481737 1.546659 
upperneck 10.282170 0.778372 -3.202936 
head 5.281200 0.212981 -1.190195 
rclavicle 0.000000 0.000000 
rhumerus -24.824235 -13.062786 -81.910500 
rradius 31.302935 
rwrist -4.823084 
rhand -12.666762 -12.445042 
rfingers 0.000000 
rthumb 13.414434 -41.993102 
lclavicle 0.000000 0.000000 
lhumerus -38.606683 4.723375 85.728451 
lradius 35.385601 
lwrist -15.477718 
lhand -6.459084 15.390192 
lfingers 0.000000 
lthumb 19.390994 44.443295 
rfemur 11.900403 3.386456 25.053241 
rtibia 13.855367 
rfoot 21.859432 -6.417937 
rtoes -13.752961 
lfemur -62.577998 2.281206 -18.700056 
ltibia 78.845974 
lfoot -19.485784 0.380605 
ltoes 6.126612 
150
root -8.068013 19.101255 -10.638488 4.604831 -4.482566 -3.920739
lowerback 12.954574 3.799380 2.586702 
upperback -0.134815 5.553996 1.546004 
thorax -7.311746 2.635849 -0.865942 
lowerneck -13.356124 0.375188 1.486194 
upperneck 10.123466 0.614799 -3.000095 
head 5.245931 0.145086 -1.129915 
rclavicle 0.000000 0.000000 
rhumerus -25.165984 -13.559743 -81.772502 
rradius 30.954846 
rwrist -4.238400 
rhand -12.602970 -12.443797 
rfingers 0.000000 
rthumb 13.475936 -41.987811 
lclavicle 0.000000 0.000000 
lhumerus -38.609336 4.548376 85.748160 
lradius 35.528875 
lwrist -15.271231 
lhand -6.340369 15.377828 
lfingers 0.000000 
lthumb 19.505152 44.419429 
rfemur 11.294350 3.314703 24.965268 
rtibia 14.489624 
rfoot 24.043259 -7.036863 
rtoes -13.209991 
lfemur -61.464157 2.152464 -18.635383 
ltibia 78.108359 
lfoot -20.100281 0.481158 
ltoes 6.025785 
151
root -8.059939 19.225644 -10.447858 4.859053 -4.218522 -4.025003
lowerback 12.879476 3.766268 2.549010 
upperback -0.259290 5.508199 1.562003 
thorax -7.409353 2.612854 -0.819629 
lowerneck -13.472698 0.283456 1.444528 
upperneck 9.968928 0.471984 -2.825247 
head 5.212897 0.085997 -1.079805 
rclavicle 0.000000 0.000000 
rhumerus -25.466833 -13.985699 -81.665252 
rradius 30.655678 
rwrist -3.663767 
rhand -12.496186 -12.426710 
rfingers 0.000000 
rthumb 13.578831 -41.963880 
lclavicle 0.000000 0.000000 
lhumerus -38.623403 4.314345 85.800373 
lradius 35.779826 
lwrist -15.048540 
lhand -6.231002 15.343767 
lfingers 0.000000 
lthumb 19.610265 44.374749 
rfemur 10.516685 3.134763 24.876725 
rtibia 15.651769 
rfoot 25.423955 -7.379409 
rtoes -12.684952 
lfemur -60.327008 1.979238 -18.602841 
ltibia 77.261216 
lfoot -20.597482 0.577192 
ltoes 5.833021 
